<svg xmlns="http://www.w3.org/2000/svg" xmlns:xlink="http://www.w3.org/1999/xlink" width="40" height="40" viewBox="0 0 40 40"><defs><style>.a{fill:none;}.b{fill:#5b5d6e;}.c{clip-path:url(#a);}.d{fill:#e8af80;}.e{fill:#f0f4ff;}.f{fill:#b88461;}.g{fill:#ffcb97;}.h{fill:#dae2f0;}.i{fill:#41434f;}.j{fill:#373843;}.k{fill:#946762;}.l{fill:#6b4a4a;}.m{fill:#402c2f;}</style><clipPath id="a"><rect class="a" width="40" height="40" rx="16"/></clipPath></defs><rect class="b" width="40" height="40" rx="16"/><g class="c"><path class="d" d="M193.158,317.916V313.39H181.52v4.526l5.819,5.172Z" transform="translate(-167.339 -288.906)"/><path class="e" d="M72.465,372.478l-8-1.883a1.266,1.266,0,0,1-.336-.135l-6.48,3.782-6.227-3.962a1.29,1.29,0,0,1-.589.318l-8,1.883A2.586,2.586,0,0,0,40.84,375v5.063a1.293,1.293,0,0,0,1.293,1.291H73.166a1.293,1.293,0,0,0,1.293-1.293V375a2.586,2.586,0,0,0-1.994-2.517Z" transform="translate(-37.649 -341.352)"/><path class="f" d="M181.52,313.39v4.775c7.33,2.641,11.641-3.969,11.641-3.969v-.806Z" transform="translate(-167.339 -288.906)"/><path class="g" d="M148.42,123.06l.563,12.395a3.882,3.882,0,0,0,1.548,2.927l2.673,2a3.881,3.881,0,0,0,2.327.776h2.586a3.875,3.875,0,0,0,2.327-.776l2.673-2a3.88,3.88,0,0,0,1.548-2.927l.563-12.395Z" transform="translate(-136.825 -113.446)"/><path class="d" d="M154.886,125.646c2.586,0,6.465-.647,7.385-2.586H148.42l.563,12.395a3.882,3.882,0,0,0,1.548,2.927l2.673,2a3.881,3.881,0,0,0,2.327.776h1.293c-1.293,0-3.879-2.586-3.879-5.819v-7.757A2.064,2.064,0,0,1,154.886,125.646Z" transform="translate(-136.825 -113.446)"/><path class="h" d="M45.614,413.893l-4.187-3.763a2.578,2.578,0,0,0-.557,1.6V416.8a1.293,1.293,0,0,0,1.291,1.293h4.526V416.3A3.23,3.23,0,0,0,45.614,413.893Z" transform="translate(-37.677 -378.089)"/><path class="h" d="M397.753,413.893l4.187-3.763a2.578,2.578,0,0,1,.557,1.6V416.8a1.293,1.293,0,0,1-1.291,1.293H396.68V416.3A3.23,3.23,0,0,1,397.753,413.893Z" transform="translate(-365.689 -378.089)"/><path class="i" d="M238.543,443.339H235.31l.4-5.819h2.424Z" transform="translate(-216.926 -403.339)"/><path class="j" d="M231.6,421H227.08v1.7a1.01,1.01,0,0,0,1.009,1.008h2.5a1.009,1.009,0,0,0,1.01-1.01V421Z" transform="translate(-209.339 -388.109)"/><path class="h" d="M158.548,350.94l5.909,5.32a22.336,22.336,0,0,0-3.7,2.52.83.83,0,0,1-1.284-.291l-2.777-6.11.878-1.317a.646.646,0,0,1,.97-.122Z" transform="translate(-144.458 -323.369)"/><path class="h" d="M261.909,350.95,256,356.27a22.32,22.32,0,0,1,3.7,2.52.83.83,0,0,0,1.284-.291l2.777-6.108-.879-1.317a.646.646,0,0,0-.97-.124Z" transform="translate(-236 -323.379)"/><path class="k" d="M306.17,63.491l.606,4.284c2.766.553,3.166,4.9,3.223,6.135a1.27,1.27,0,0,0,.2.632l1.055,1.641a6.192,6.192,0,0,1,1.293-4.526S313.12,60.905,306.17,63.491Z" transform="translate(-282.25 -58.161)"/><path class="g" d="M348.5,207.474l-.73,2.92a.781.781,0,0,1-.754.588h0a.781.781,0,0,1-.772-.68l-.37-2.986a1.34,1.34,0,0,1,1.328-1.505h0a1.34,1.34,0,0,1,1.3,1.664Z" transform="translate(-318.847 -189.731)"/><path class="l" d="M125.444,33.677l.956.653C122.077,37.522,122.885,43,122.885,43c1.293,1.293,1.293,4.526,1.293,4.526l1.294-1.293s-.5-3.735,1.939-5.173c2.266-1.333,4.243-.646,6.263-.646,5.415,0,6.93-2.041,6.667-4.526-.136-1.286-2.1-3.964-7.109-3.879A21.757,21.757,0,0,0,125.444,33.677Z" transform="translate(-113.229 -29.504)"/><path class="m" d="M125.067,67.286A7.1,7.1,0,0,1,126.4,61.77c-4.323,3.192-3.516,8.667-3.516,8.667,1.293,1.293,1.293,4.526,1.293,4.526l1.294-1.293s-.5-3.735,1.939-5.172c2.266-1.334,4.243-.647,6.263-.647a15.815,15.815,0,0,0,2.331-.16C131.835,67.831,129.378,64.672,125.067,67.286Z" transform="translate(-113.229 -56.944)"/><path class="d" d="M131.92,207.474l.73,2.92a.776.776,0,0,0,.754.588h0a.777.777,0,0,0,.771-.68l.37-2.986a1.339,1.339,0,0,0-1.328-1.505h0a1.34,1.34,0,0,0-1.3,1.664Z" transform="translate(-121.577 -189.731)"/><path class="h" d="M302.552,495.45h-4.526a.647.647,0,0,0-.646.647v.646H303.2V496.1A.647.647,0,0,0,302.552,495.45Z" transform="translate(-274.147 -456.743)"/></g></svg>